<?xml version="1.0" standalone="no"?><!DOCTYPE svg PUBLIC "-//W3C//DTD SVG 1.1//EN" "http://www.w3.org/Graphics/SVG/1.1/DTD/svg11.dtd"><svg class="icon" height="512" viewBox="0 0 1024 1024" version="1.1" xmlns="http://www.w3.org/2000/svg"><path d="M494.933333 0c79.644444 0 153.6 34.133333 210.488889 85.333333 51.2 51.2 85.333333 125.155556 85.333334 210.488889 0 79.644444-34.133333 153.6-85.333334 210.488889-11.377778 11.377778-28.444444 22.755556-45.511111 34.133333 62.577778 22.755556 119.466667 62.577778 164.977778 108.088889 85.333333 85.333333 136.533333 199.111111 136.533333 329.955556 0 22.755556-17.066667 39.822222-39.822222 39.822222-22.755556 0-39.822222-17.066667-39.822222-39.822222 0-108.088889-45.511111-204.8-113.777778-273.066667a386.844444 386.844444 0 0 0-273.066667-113.777778c-108.088889 0-204.8 45.511111-273.066666 113.777778a386.844444 386.844444 0 0 0-113.777778 273.066667c0 22.755556-17.066667 39.822222-39.822222 39.822222-22.755556 0-39.822222-17.066667-39.822223-39.822222 0-130.844444 51.2-244.622222 136.533334-329.955556 45.511111-45.511111 102.4-85.333333 164.977778-108.088889-17.066667-11.377778-28.444444-22.755556-45.511112-39.822222C233.244444 449.422222 199.111111 375.466667 199.111111 295.822222s34.133333-153.6 85.333333-210.488889C341.333333 34.133333 409.6 0 494.933333 0z m147.911111 142.222222c-39.822222-39.822222-91.022222-62.577778-153.6-62.577778-56.888889 0-113.777778 22.755556-153.6 62.577778-34.133333 39.822222-56.888889 91.022222-56.888888 153.6 0 56.888889 22.755556 113.777778 62.577777 153.6 39.822222 39.822222 91.022222 62.577778 153.6 62.577778 56.888889 0 113.777778-22.755556 153.6-62.577778 39.822222-39.822222 62.577778-91.022222 62.577778-153.6-5.688889-62.577778-28.444444-113.777778-68.266667-153.6z" fill="#1296db" /></svg>